<?xml version="1.0" encoding="UTF-8" standalone="no"?>
<!-- Created with Inkscape (http://www.inkscape.org/) -->

<svg
   xmlns:dc="http://purl.org/dc/elements/1.1/"
   xmlns:cc="http://creativecommons.org/ns#"
   xmlns:rdf="http://www.w3.org/1999/02/22-rdf-syntax-ns#"
   xmlns:svg="http://www.w3.org/2000/svg"
   xmlns="http://www.w3.org/2000/svg"
   version="1.1"
   width="64"
   height="64"
   id="svg3039">
  <defs />
  <metadata
     id="metadata3044">
    <rdf:RDF>
      <cc:Work
         rdf:about="">
        <dc:format>image/svg+xml</dc:format>
        <dc:type
           rdf:resource="http://purl.org/dc/dcmitype/StillImage" />
        <dc:title></dc:title>
      </cc:Work>
    </rdf:RDF>
  </metadata>
  <path
     d="M 23.375,1.9375 20.5625,2.96875 20.15625,10 C 12.3293,14.223335 7,22.482534 7,32 7,45.807119 18.192881,57 32,57 45.807119,57 57,45.807119 57,32 57,18.192881 45.807119,7 32,7 30.770635,7 29.556859,7.0785846 28.375,7.25 l -5,-5.3125 z"
     id="poti"
     style="fill:#008000" />
  <g
     transform="matrix(0.77486653,-0.19895191,0.19895193,0.77486662,0.9152955,13.550833)"
     id="python">
    <path
       d="m 31.77113,7.0004188 c -2.075804,0.0096 -4.058149,0.1855 -5.80241,0.492194 -5.138374,0.902038 -6.071304,2.7900832 -6.071304,6.2719542 l 0,4.5985 12.142606,0 0,1.532832 -12.142606,0 -4.557015,0 c -3.528979,0 -6.6190539,2.107701 -7.5855905,6.117269 -1.1148874,4.595897 -1.1643391,7.463811 0,12.262666 0.8631407,3.572081 2.9244345,6.117268 6.4534125,6.117269 l 4.174906,0 0,-5.512574 c 0,-3.982508 3.4677,-7.495413 7.585591,-7.495413 l 12.128453,0 c 3.376131,0 6.071304,-2.762211 6.071303,-6.131332 l 0,-11.489217 c 0,-3.269894 -2.776091,-5.7262222 -6.071303,-6.2719542 -2.085919,-0.345031 -4.250239,-0.501778 -6.326043,-0.492194 z m -6.566631,3.6984842 c 1.254249,0 2.278509,1.034403 2.278509,2.306279 -1e-6,1.267368 -1.02426,2.292218 -2.278509,2.292218 -1.258744,0 -2.278507,-1.02485 -2.278507,-2.292218 -1e-6,-1.271876 1.019763,-2.306279 2.278507,-2.306279 z"
       id="pythonTop"
       style="fill:#ffffff" />
    <path
       d="m 32.028873,56.999586 c 2.075804,-0.0096 4.058145,-0.185501 5.802414,-0.492195 5.138367,-0.902037 6.071297,-2.790083 6.071297,-6.271958 l 0,-4.598499 -12.142608,0 0,-1.532834 12.142608,0 4.557016,0 c 3.528978,0 6.619054,-2.1077 7.58559,-6.117268 1.114887,-4.595898 1.164338,-7.463812 0,-12.262666 -0.86314,-3.572081 -2.924435,-6.117269 -6.453413,-6.11727 l -4.174905,0 0,5.512575 c 0,3.982508 -3.467699,7.495412 -7.585585,7.495413 l -12.128459,0 c -3.376132,0 -6.0713,2.762211 -6.0713,6.131332 l 0,11.489217 c 0,3.269896 2.776086,5.726226 6.0713,6.271958 2.085915,0.345031 4.25024,0.501779 6.326045,0.492195 z m 6.566626,-3.698487 c -1.254246,0 -2.278504,-1.034406 -2.278504,-2.306281 0,-1.267369 1.024258,-2.292219 2.278504,-2.292219 1.258749,0 2.278515,1.02485 2.278515,2.292219 0,1.271875 -1.019766,2.306281 -2.278515,2.306281 z"
       id="pythonBottom"
       style="fill:#ffffff" />
  </g>
</svg>
